<svg width="29" height="29" viewBox="0 0 29 29" fill="none" xmlns="http://www.w3.org/2000/svg">
<path d="M14.5 2.71875C7.99358 2.71875 2.71875 7.99358 2.71875 14.5C2.71875 20.063 6.57575 24.7225 11.7609 25.9577C11.4926 25.8938 11.2266 25.8222 10.9656 25.7407V23.0414C10.9656 23.0414 10.5238 23.1887 9.93477 23.1887C8.28675 23.1887 7.60208 21.7183 7.43125 20.9797C7.32748 20.5297 7.05652 20.1033 6.76561 19.8428C6.41806 19.5329 6.25539 19.532 6.25313 19.4259C6.24859 19.2034 6.55128 19.2125 6.69492 19.2125C7.43125 19.2125 7.9895 19.996 8.24869 20.401C8.89077 21.4011 9.57997 21.5687 9.93477 21.5687C10.3766 21.5687 10.7581 21.5026 11.0209 21.3757C11.1423 20.5202 11.523 19.7581 12.1437 19.2125C9.38105 18.6601 7.43125 17.0756 7.43125 14.5C7.43125 13.1733 7.96367 11.9539 8.85089 10.9693C8.76027 10.7123 8.60938 10.1926 8.60938 9.3457C8.60938 8.78609 8.64834 8.09916 8.90391 7.43125C8.90391 7.43125 10.5841 7.44303 12.1687 8.94378C12.9 8.73081 13.6826 8.60938 14.5 8.60938C15.3174 8.60938 16.1 8.73081 16.8313 8.94378C18.4159 7.44303 20.0961 7.43125 20.0961 7.43125C20.353 8.09916 20.3906 8.78609 20.3906 9.3457C20.3906 10.2588 20.2692 10.7912 20.1949 11.0209C21.0549 11.9965 21.5687 13.1968 21.5687 14.5C21.5687 17.0756 19.619 18.6601 16.8563 19.2125C17.5939 19.8605 18.0344 20.8043 18.0344 21.8633V25.7407C17.7734 25.8227 17.5078 25.8938 17.2391 25.9577C22.4242 24.7225 26.2812 20.063 26.2812 14.5C26.2812 7.99358 21.0064 2.71875 14.5 2.71875ZM15.3215 26.2495C15.0501 26.2686 14.7764 26.2812 14.5 26.2812C14.7764 26.2812 15.0496 26.2681 15.3215 26.2495ZM14.5 26.2812C14.2236 26.2812 13.9499 26.2686 13.6785 26.2495C13.9504 26.2681 14.2236 26.2812 14.5 26.2812ZM13.4977 26.2359C12.9462 26.1893 12.4052 26.105 11.8782 25.9849C12.4057 26.1045 12.9462 26.1893 13.4977 26.2359Z" fill="#F8EFEF"/>
</svg>
